<?xml version="1.0" encoding="UTF-8"?>
<svg id="Layer_1" data-name="Layer 1" xmlns="http://www.w3.org/2000/svg" viewBox="0 0 1010.91 1036.89">
  <defs>
    <style>
      .cls-1 {
        letter-spacing: 0em;
      }

      .cls-2 {
        letter-spacing: 0em;
      }

      .cls-3, .cls-4 {
        fill: #6fcaff;
      }

      .cls-4 {
        font-family: AcuminConcept-CondensedBold, 'Acumin Variable Concept';
        font-size: 145.08px;
        font-variation-settings: 'wght' 700, 'wdth' 67, 'slnt' 0;
        font-weight: 700;
      }
    </style>
  </defs>
  <path class="cls-3" d="M578.65,205.73c0-14.19-11.47-25.66-25.66-25.66s-25.66,11.47-25.66,25.66v194.59l-58.85-58.85c-10.02-10.02-26.3-10.02-36.32,0s-10.02,26.3,0,36.32l102.63,102.63c10.02,10.02,26.3,10.02,36.32,0l102.63-102.63c10.02-10.02,10.02-26.3,0-36.32-10.02-10.02-26.3-10.02-36.32,0l-58.77,58.85V205.73Z"/>
  <text class="cls-4" transform="translate(427.31 835.11) scale(1.21 1)"><tspan class="cls-1" x="0" y="0">P</tspan><tspan x="69.06" y="0">D</tspan><tspan class="cls-2" x="143.34" y="0">F</tspan></text>
  <path class="cls-3" d="M707.74,549.82h-81.38l-36.32,36.32c-20.04,20.04-52.52,20.04-72.56,0l-36.24-36.32h-81.38c-28.3,0-51.31,23.01-51.31,51.31v25.66c0,28.3,23.01,51.31,51.31,51.31h307.88c28.3,0,51.31-23.01,51.31-51.31v-25.66c0-28.3-23.01-51.31-51.31-51.31Zm-16.84,85.79c-10.62,0-19.24-8.62-19.24-19.24s8.62-19.24,19.24-19.24,19.24,8.62,19.24,19.24-8.62,19.24-19.24,19.24Z"/>
  <path class="cls-" d="M940.41,594.65c-6.53,71.39-32.12,136.45-71.33,190.66l-44.04-32.04c41.07-55.82,64.57-124.19,64.7-195.79l52.25,.44c.05,12.11-.46,24.42-1.59,36.74Z"/>
  <path class="cls-" d="M830.3,981.97c-33.46,26.01-72.63,45.08-115.32,54.92l-6.89-28.73-3.14-14.15c8.25-1.83,16.4-4.12,24.6-6.79,27.6-9.14,52.48-22.45,74.32-39.08l26.43,33.83Z"/>
  <path class="cls-" d="M535.06,967.4c-2.24,.07-4.47,.07-6.71,.07-47.06,0-92.35-7.59-134.73-21.56v-.07l19.87-61.7c38.17,12.82,78.59,19.46,119.74,19.12l1.83,64.14Z"/>
  <path class="cls-" d="M210.41,932.87l-32.08,47.29-.06,.12C88.36,918.15,26.58,818.19,15.99,703.38l55.49-5.57c2.39,23.11,7.3,46.33,14.85,69.32,23.16,69.97,67.7,126.9,124.09,165.75Z"/>
  <path class="cls-" d="M326.91,313.98c-25.74,22.43-46.87,49.2-62.67,78.62l-.41-.16c-6.42,12.02-11.96,24.45-16.57,37.19l-12.79-4.61-32.68-12.33c19.73-52.62,52.62-98.77,94.63-134.56l30.51,35.84Z"/>
  <path class="cls-" d="M138.78,172.45c-27.81,39.99-47.73,84.4-59.35,130.61l-.63-.07c-4.7,18.86-8.04,37.99-9.99,57.23l-19.31-1.92L0,352.61c8.99-79.68,38.43-154.99,84.09-219.14l54.69,38.97Z"/>
  <path class="cls-" d="M443.34,52.51c-29.03,7.57-57.36,19.12-84.58,34.75l-26.56-47.99c30.31-17.03,63.23-30.35,98.45-39.27l12.68,52.51Z"/>
  <path class="cls-" d="M1010.22,242.48l-6.63,1.7-46.36,11.84c-5.06-18.48-12.24-36.66-21.63-54.36-28.6-53.85-73.18-94.36-125.1-118.74l20.18-42.47,.28-.56c88,38.04,153.64,113.13,179.26,202.59Z"/>
</svg>