<svg xmlns="http://www.w3.org/2000/svg" viewBox="0 0 989.2 685.21">
  <defs>
    <style>
      .cls-1 {
        letter-spacing: 0em;
      }

      .cls-2 {
        letter-spacing: 0em;
      }

      .cls-3, .cls-4 {
        fill: #6fcaff;
      }

      .cls-5 {
        letter-spacing: 0em;
      }

      .cls-4 {
        font-family: AcuminConcept-CondensedBold, 'Acumin Variable Concept';
        font-size: 33.33px;
        font-variation-settings: 'wght' 700, 'wdth' 67, 'slnt' 0;
        font-weight: 700;
      }
    </style>
  </defs>
  <path class="cls-3" d="M551.67,175.15c0-3.26-2.63-5.89-5.89-5.89s-5.89,2.63-5.89,5.89v44.7l-13.52-13.52c-2.3-2.3-6.04-2.3-8.34,0s-2.3,6.04,0,8.34l23.58,23.58c2.3,2.3,6.04,2.3,8.34,0l23.58-23.58c2.3-2.3,2.3-6.04,0-8.34s-6.04-2.3-8.34,0l-13.5,13.52v-44.7Z"/>
  <path class="cls-3" d="M581.33,234.9h-18.7l-8.34,8.34c-4.6,4.6-12.06,4.6-16.67,0l-8.33-8.34h-18.7c-6.5,0-11.79,5.29-11.79,11.79v5.89c0,6.5,5.29,11.79,11.79,11.79h70.73c6.5,0,11.79-5.29,11.79-11.79v-5.89c0-6.5-5.29-11.79-11.79-11.79Zm-3.87,19.71c-2.44,0-4.42-1.98-4.42-4.42s1.98-4.42,4.42-4.42,4.42,1.98,4.42,4.42-1.98,4.42-4.42,4.42Z"/>
  <path class="cls-3" d="M651.46,240.21c0,19.98-5.45,38.69-14.96,54.74l-13.04-7.78c9.98-16.54,14.77-36.11,12.99-55.99l14.52-1.21c.32,3.36,.49,6.79,.49,10.24Z"/>
  <path class="cls-3" d="M609.88,325.21c-12.12,9.42-26.32,16.33-41.78,19.9l-2.5-10.41-1.14-5.13c2.99-.66,5.94-1.49,8.91-2.46,10-3.31,19.02-8.13,26.93-14.16l9.58,12.26Z"/>
  <path class="cls-3" d="M491.8,315.36l-9.1,13.41-.02,.03c-25.5-17.62-43.02-45.98-46.03-78.54l15.74-1.58c.68,6.55,2.07,13.14,4.21,19.66,6.57,19.85,19.2,35.99,35.2,47.01Z"/>
  <path class="cls-3" d="M484.06,169.99c-8.44,7.35-15.37,16.13-20.54,25.77l-.14-.05c-2.11,3.94-3.92,8.01-5.43,12.19l-4.19-1.51-10.71-4.04c6.47-17.25,17.25-32.38,31.02-44.11l10,11.75Z"/>
  <path class="cls-3" d="M484.15,169.66c-8.44,7.35-15.37,16.13-20.54,25.77l-.14-.05c-2.11,3.94-3.92,8.01-5.43,12.19l-4.19-1.51-10.71-4.04c6.47-17.25,17.25-32.38,31.02-44.11l10,11.75Z"/>
  <path class="cls-3" d="M542.36,146.9c-7.95,.15-15.96,1.38-23.94,3.72l-3.87-14.01c8.86-2.51,18.17-3.9,27.79-4.02l.02,14.31Z"/>
  <path class="cls-3" d="M642.55,197.28l-2.14,.9-14.96,6.28c-2.56-6.08-5.82-11.95-9.8-17.56-12.11-17.05-28.93-28.76-47.45-34.6l4.75-15.5,.07-.2c31.24,8.78,56.74,31.31,69.52,60.68Z"/>
  <path class="cls-3" d="M545.5,347.84c-.56,.02-1.12,.02-1.68,.02-11.78,0-23.12-1.9-33.73-5.4v-.02l4.97-15.45c9.56,3.21,19.68,4.87,29.98,4.79l.46,16.06Z"/>
  <text class="cls-4" transform="translate(517.37 302.74) scale(1.21 1)"><tspan class="cls-5" x="0" y="0">P</tspan><tspan class="cls-1" x="15.87" y="0">D</tspan><tspan class="cls-2" x="32.93" y="0">F</tspan></text>
</svg>